<?xml version="1.0" encoding="UTF-8"?><svg xmlns="http://www.w3.org/2000/svg" xmlns:xlink="http://www.w3.org/1999/xlink" fill-opacity="1" color-rendering="auto" color-interpolation="auto" text-rendering="auto" stroke="black" stroke-linecap="square" width="1861" stroke-miterlimit="10" shape-rendering="auto" stroke-opacity="1" fill="black" stroke-dasharray="none" font-weight="normal" stroke-width="1" height="1297" font-family="'Dialog'" font-style="normal" stroke-linejoin="miter" font-size="12px" stroke-dashoffset="0" image-rendering="auto">
  <!--Generated by ySVG 2.5-->
  <defs id="genericDefs"/>
  <g>
    <defs id="defs1">
      <clipPath clipPathUnits="userSpaceOnUse" id="clipPath1">
        <path d="M0 0 L1861 0 L1861 1297 L0 1297 L0 0 Z"/>
      </clipPath>
      <clipPath clipPathUnits="userSpaceOnUse" id="clipPath2">
        <path d="M-921 -158 L940 -158 L940 1139 L-921 1139 L-921 -158 Z"/>
      </clipPath>
      <clipPath clipPathUnits="userSpaceOnUse" id="clipPath3">
        <path d="M101 -142 L101 -6 L330 -6 L330 -142 Z"/>
      </clipPath>
      <clipPath clipPathUnits="userSpaceOnUse" id="clipPath4">
        <path d="M-905 256 L-905 284 L-654 284 L-654 256 Z"/>
      </clipPath>
      <clipPath clipPathUnits="userSpaceOnUse" id="clipPath5">
        <path d="M-362 255 L-362 315 L-237 315 L-237 255 Z"/>
      </clipPath>
      <clipPath clipPathUnits="userSpaceOnUse" id="clipPath6">
        <path d="M-350 390 L-350 418 L-250 418 L-250 390 Z"/>
      </clipPath>
      <clipPath clipPathUnits="userSpaceOnUse" id="clipPath7">
        <path d="M-890 -88 L-890 -60 L-720 -60 L-720 -88 Z"/>
      </clipPath>
      <clipPath clipPathUnits="userSpaceOnUse" id="clipPath8">
        <path d="M-890 46 L-890 74 L-720 74 L-720 46 Z"/>
      </clipPath>
      <clipPath clipPathUnits="userSpaceOnUse" id="clipPath9">
        <path d="M-366 85 L-366 113 L-233 113 L-233 85 Z"/>
      </clipPath>
      <clipPath clipPathUnits="userSpaceOnUse" id="clipPath10">
        <path d="M-108 370 L-108 438 L131 438 L131 370 Z"/>
      </clipPath>
      <clipPath clipPathUnits="userSpaceOnUse" id="clipPath11">
        <path d="M504 332 L504 476 L916 476 L916 332 Z"/>
      </clipPath>
      <clipPath clipPathUnits="userSpaceOnUse" id="clipPath12">
        <path d="M379 1076 L379 1104 L527 1104 L527 1076 Z"/>
      </clipPath>
      <clipPath clipPathUnits="userSpaceOnUse" id="clipPath13">
        <path d="M625 1055 L625 1123 L795 1123 L795 1055 Z"/>
      </clipPath>
      <clipPath clipPathUnits="userSpaceOnUse" id="clipPath14">
        <path d="M578 567 L578 683 L842 683 L842 567 Z"/>
      </clipPath>
      <clipPath clipPathUnits="userSpaceOnUse" id="clipPath15">
        <path d="M-489 550 L-489 578 L-319 578 L-319 550 Z"/>
      </clipPath>
      <clipPath clipPathUnits="userSpaceOnUse" id="clipPath16">
        <path d="M-622 612 L-622 640 L-416 640 L-416 612 Z"/>
      </clipPath>
      <clipPath clipPathUnits="userSpaceOnUse" id="clipPath17">
        <path d="M-384 612 L-384 640 L-190 640 L-190 612 Z"/>
      </clipPath>
      <clipPath clipPathUnits="userSpaceOnUse" id="clipPath18">
        <path d="M496 741 L496 988 L923 988 L923 741 Z"/>
      </clipPath>
      <clipPath clipPathUnits="userSpaceOnUse" id="clipPath19">
        <path d="M379 1018 L379 1046 L527 1046 L527 1018 Z"/>
      </clipPath>
      <clipPath clipPathUnits="userSpaceOnUse" id="clipPath20">
        <path d="M-342 187 L-342 215 L-258 215 L-258 187 Z"/>
      </clipPath>
      <clipPath clipPathUnits="userSpaceOnUse" id="clipPath21">
        <path d="M-471 492 L-471 520 L-338 520 L-338 492 Z"/>
      </clipPath>
      <clipPath clipPathUnits="userSpaceOnUse" id="clipPath22">
        <path d="M-38 517 L-38 545 L62 545 L62 517 Z"/>
      </clipPath>
    </defs>
    <g fill="white" text-rendering="geometricPrecision" shape-rendering="geometricPrecision" transform="translate(921,158)" stroke="white">
      <rect x="-921" width="1861" height="1297" y="-158" clip-path="url(#clipPath2)" stroke="none"/>
    </g>
    <g fill="rgb(255,204,0)" text-rendering="geometricPrecision" shape-rendering="geometricPrecision" transform="matrix(1,0,0,1,921,158)" stroke="rgb(255,204,0)">
      <rect x="102" width="227" height="134" y="-141" clip-path="url(#clipPath2)" stroke="none"/>
      <rect x="101" y="-142" clip-path="url(#clipPath2)" fill="yellow" width="1" height="136" stroke="none"/>
      <rect x="102" y="-142" clip-path="url(#clipPath2)" fill="yellow" width="227" height="1" stroke="none"/>
      <rect x="102" y="-7" clip-path="url(#clipPath2)" fill="rgb(178,142,0)" width="228" height="1" stroke="none"/>
      <rect x="329" y="-142" clip-path="url(#clipPath2)" fill="rgb(178,142,0)" width="1" height="135" stroke="none"/>
    </g>
    <g font-size="13px" stroke-linecap="butt" transform="matrix(1,0,0,1,921,158)" text-rendering="geometricPrecision" font-family="sans-serif" shape-rendering="geometricPrecision" font-weight="bold" stroke-miterlimit="1.45">
      <text x="177.9904" xml:space="preserve" y="-124.5038" clip-path="url(#clipPath3)" stroke="none">GanttWidget</text>
    </g>
    <g text-rendering="geometricPrecision" shape-rendering="geometricPrecision" transform="matrix(1,0,0,1,921,158)">
      <line y2="-116" fill="none" x1="102" clip-path="url(#clipPath3)" x2="330" y1="-116"/>
      <line y2="-106" fill="none" x1="102" clip-path="url(#clipPath3)" x2="330" y1="-106"/>
      <text stroke-linecap="butt" x="106.6494" y="-89.5829" clip-path="url(#clipPath3)" font-family="sans-serif" stroke="none" stroke-miterlimit="1.45" xml:space="preserve">// connects model &amp; GanttInfoTree</text>
      <text stroke-linecap="butt" x="106.6494" y="-74.8818" clip-path="url(#clipPath3)" font-family="sans-serif" stroke="none" stroke-miterlimit="1.45" xml:space="preserve">void setBuilder(AbstractBuilder *builder);</text>
      <rect x="-904" y="257" clip-path="url(#clipPath2)" fill="rgb(255,204,0)" width="249" height="26" stroke="none"/>
      <rect x="-905" y="256" clip-path="url(#clipPath2)" fill="yellow" width="1" height="28" stroke="none"/>
      <rect x="-904" y="256" clip-path="url(#clipPath2)" fill="yellow" width="249" height="1" stroke="none"/>
      <rect x="-904" y="283" clip-path="url(#clipPath2)" fill="rgb(178,142,0)" width="250" height="1" stroke="none"/>
      <rect x="-655" y="256" clip-path="url(#clipPath2)" fill="rgb(178,142,0)" width="1" height="27" stroke="none"/>
    </g>
    <g font-size="13px" stroke-linecap="butt" transform="matrix(1,0,0,1,921,158)" text-rendering="geometricPrecision" font-family="sans-serif" shape-rendering="geometricPrecision" font-weight="bold" stroke-miterlimit="1.45">
      <text x="-838.1541" xml:space="preserve" y="274.0698" clip-path="url(#clipPath4)" stroke="none">GanttIntervalSlider</text>
    </g>
    <g fill="rgb(255,204,0)" text-rendering="geometricPrecision" shape-rendering="geometricPrecision" transform="matrix(1,0,0,1,921,158)" stroke="rgb(255,204,0)">
      <rect x="-361" width="123" height="58" y="256" clip-path="url(#clipPath2)" stroke="none"/>
      <rect x="-362" y="255" clip-path="url(#clipPath2)" fill="yellow" width="1" height="60" stroke="none"/>
      <rect x="-361" y="255" clip-path="url(#clipPath2)" fill="yellow" width="123" height="1" stroke="none"/>
      <rect x="-361" y="314" clip-path="url(#clipPath2)" fill="rgb(178,142,0)" width="124" height="1" stroke="none"/>
      <rect x="-238" y="255" clip-path="url(#clipPath2)" fill="rgb(178,142,0)" width="1" height="59" stroke="none"/>
    </g>
    <g font-size="13px" stroke-linecap="butt" transform="matrix(1,0,0,1,921,158)" text-rendering="geometricPrecision" font-family="sans-serif" shape-rendering="geometricPrecision" font-weight="bold" stroke-miterlimit="1.45">
      <text x="-336.1213" xml:space="preserve" y="273.5652" clip-path="url(#clipPath5)" stroke="none">GanttScene</text>
    </g>
    <g fill="rgb(255,204,0)" text-rendering="geometricPrecision" shape-rendering="geometricPrecision" transform="matrix(1,0,0,1,921,158)" stroke="rgb(255,204,0)">
      <rect x="-349" width="98" height="26" y="391" clip-path="url(#clipPath2)" stroke="none"/>
      <rect x="-350" y="390" clip-path="url(#clipPath2)" fill="yellow" width="1" height="28" stroke="none"/>
      <rect x="-349" y="390" clip-path="url(#clipPath2)" fill="yellow" width="98" height="1" stroke="none"/>
      <rect x="-349" y="417" clip-path="url(#clipPath2)" fill="rgb(178,142,0)" width="99" height="1" stroke="none"/>
      <rect x="-251" y="390" clip-path="url(#clipPath2)" fill="rgb(178,142,0)" width="1" height="27" stroke="none"/>
    </g>
    <g font-size="13px" stroke-linecap="butt" transform="matrix(1,0,0,1,921,158)" text-rendering="geometricPrecision" font-family="sans-serif" shape-rendering="geometricPrecision" font-weight="bold" stroke-miterlimit="1.45">
      <text x="-329.98" xml:space="preserve" y="408.4109" clip-path="url(#clipPath6)" stroke="none">DtInterval</text>
    </g>
    <g fill="rgb(255,204,0)" text-rendering="geometricPrecision" shape-rendering="geometricPrecision" transform="matrix(1,0,0,1,921,158)" stroke="rgb(255,204,0)">
      <rect x="-889" width="168" height="26" y="-87" clip-path="url(#clipPath2)" stroke="none"/>
      <rect x="-890" y="-88" clip-path="url(#clipPath2)" fill="yellow" width="1" height="28" stroke="none"/>
      <rect x="-889" y="-88" clip-path="url(#clipPath2)" fill="yellow" width="168" height="1" stroke="none"/>
      <rect x="-889" y="-61" clip-path="url(#clipPath2)" fill="rgb(178,142,0)" width="169" height="1" stroke="none"/>
      <rect x="-721" y="-88" clip-path="url(#clipPath2)" fill="rgb(178,142,0)" width="1" height="27" stroke="none"/>
    </g>
    <g font-size="13px" stroke-linecap="butt" transform="matrix(1,0,0,1,921,158)" text-rendering="geometricPrecision" font-family="sans-serif" shape-rendering="geometricPrecision" font-weight="bold" stroke-miterlimit="1.45">
      <text x="-866.9714" xml:space="preserve" y="-70.1679" clip-path="url(#clipPath7)" stroke="none">GanttPlayerSettings</text>
    </g>
    <g fill="rgb(255,204,0)" text-rendering="geometricPrecision" shape-rendering="geometricPrecision" transform="matrix(1,0,0,1,921,158)" stroke="rgb(255,204,0)">
      <rect x="-889" width="168" height="26" y="47" clip-path="url(#clipPath2)" stroke="none"/>
      <rect x="-890" y="46" clip-path="url(#clipPath2)" fill="yellow" width="1" height="28" stroke="none"/>
      <rect x="-889" y="46" clip-path="url(#clipPath2)" fill="yellow" width="168" height="1" stroke="none"/>
      <rect x="-889" y="73" clip-path="url(#clipPath2)" fill="rgb(178,142,0)" width="169" height="1" stroke="none"/>
      <rect x="-721" y="46" clip-path="url(#clipPath2)" fill="rgb(178,142,0)" width="1" height="27" stroke="none"/>
    </g>
    <g font-size="13px" stroke-linecap="butt" transform="matrix(1,0,0,1,921,158)" text-rendering="geometricPrecision" font-family="sans-serif" shape-rendering="geometricPrecision" font-weight="bold" stroke-miterlimit="1.45">
      <text x="-864.4355" xml:space="preserve" y="64.0698" clip-path="url(#clipPath8)" stroke="none">GanttPlayerControl</text>
    </g>
    <g fill="rgb(255,204,0)" text-rendering="geometricPrecision" shape-rendering="geometricPrecision" transform="matrix(1,0,0,1,921,158)" stroke="rgb(255,204,0)">
      <rect x="-365" width="131" height="26" y="86" clip-path="url(#clipPath2)" stroke="none"/>
      <rect x="-366" y="85" clip-path="url(#clipPath2)" fill="yellow" width="1" height="28" stroke="none"/>
      <rect x="-365" y="85" clip-path="url(#clipPath2)" fill="yellow" width="131" height="1" stroke="none"/>
      <rect x="-365" y="112" clip-path="url(#clipPath2)" fill="rgb(178,142,0)" width="132" height="1" stroke="none"/>
      <rect x="-234" y="85" clip-path="url(#clipPath2)" fill="rgb(178,142,0)" width="1" height="27" stroke="none"/>
    </g>
    <g font-size="13px" stroke-linecap="butt" transform="matrix(1,0,0,1,921,158)" text-rendering="geometricPrecision" font-family="sans-serif" shape-rendering="geometricPrecision" font-weight="bold" stroke-miterlimit="1.45">
      <text x="-359.96" xml:space="preserve" y="103.722" clip-path="url(#clipPath9)" stroke="none">GanttGraphicsView</text>
    </g>
    <g fill="rgb(255,204,0)" text-rendering="geometricPrecision" shape-rendering="geometricPrecision" transform="matrix(1,0,0,1,921,158)" stroke="rgb(255,204,0)">
      <rect x="-107" width="237" height="66" y="371" clip-path="url(#clipPath2)" stroke="none"/>
      <rect x="-108" y="370" clip-path="url(#clipPath2)" fill="yellow" width="1" height="68" stroke="none"/>
      <rect x="-107" y="370" clip-path="url(#clipPath2)" fill="yellow" width="237" height="1" stroke="none"/>
      <rect x="-107" y="437" clip-path="url(#clipPath2)" fill="rgb(178,142,0)" width="238" height="1" stroke="none"/>
      <rect x="130" y="370" clip-path="url(#clipPath2)" fill="rgb(178,142,0)" width="1" height="67" stroke="none"/>
    </g>
    <g font-size="13px" stroke-linecap="butt" transform="matrix(1,0,0,1,921,158)" text-rendering="geometricPrecision" font-family="sans-serif" shape-rendering="geometricPrecision" font-weight="bold" stroke-miterlimit="1.45">
      <text x="-31.2287" xml:space="preserve" y="388.2104" clip-path="url(#clipPath10)" stroke="none">GanttInfoTree</text>
    </g>
    <g text-rendering="geometricPrecision" shape-rendering="geometricPrecision" transform="matrix(1,0,0,1,921,158)">
      <line y2="396" fill="none" x1="-107" clip-path="url(#clipPath10)" x2="130" y1="396"/>
      <line y2="406" fill="none" x1="-107" clip-path="url(#clipPath10)" x2="130" y1="406"/>
      <text stroke-linecap="butt" x="-103.4545" y="423.1313" clip-path="url(#clipPath10)" font-family="sans-serif" stroke="none" stroke-miterlimit="1.45" xml:space="preserve">void setModel(QAbstractItemModel *model);</text>
      <rect x="505" y="333" clip-path="url(#clipPath2)" fill="rgb(255,204,0)" width="410" height="142" stroke="none"/>
      <rect x="504" y="332" clip-path="url(#clipPath2)" fill="yellow" width="1" height="144" stroke="none"/>
      <rect x="505" y="332" clip-path="url(#clipPath2)" fill="yellow" width="410" height="1" stroke="none"/>
      <rect x="505" y="475" clip-path="url(#clipPath2)" fill="rgb(178,142,0)" width="411" height="1" stroke="none"/>
      <rect x="915" y="332" clip-path="url(#clipPath2)" fill="rgb(178,142,0)" width="1" height="143" stroke="none"/>
      <text stroke-linecap="butt" x="652.9652" y="349.1206" clip-path="url(#clipPath11)" font-family="sans-serif" stroke="none" stroke-miterlimit="1.45" xml:space="preserve">&lt;&lt;Abstract Factory&gt;&gt;</text>
    </g>
    <g font-size="13px" stroke-linecap="butt" transform="matrix(1,0,0,1,921,158)" text-rendering="geometricPrecision" font-family="sans-serif" shape-rendering="geometricPrecision" font-weight="bold" stroke-miterlimit="1.45">
      <text x="660.8114" xml:space="preserve" y="373.8271" clip-path="url(#clipPath11)" stroke="none">AbstractFactory</text>
    </g>
    <g text-rendering="geometricPrecision" shape-rendering="geometricPrecision" transform="matrix(1,0,0,1,921,158)">
      <line y2="381" fill="none" x1="505" clip-path="url(#clipPath11)" x2="916" y1="381"/>
      <line y2="391" fill="none" x1="505" clip-path="url(#clipPath11)" x2="916" y1="391"/>
      <text stroke-linecap="butt" x="509.1696" y="408.748" clip-path="url(#clipPath11)" font-family="sans-serif" stroke="none" stroke-miterlimit="1.45" xml:space="preserve">virtual GanttInfoItem *createInfo(const QModelIndex &amp;index) = 0;</text>
      <text stroke-linecap="butt" x="509.1696" y="423.4492" clip-path="url(#clipPath11)" font-family="sans-serif" stroke="none" stroke-miterlimit="1.45" xml:space="preserve">virtual bool isEvent(const QModelIndex &amp;index) const {return true; }</text>
      <text stroke-linecap="butt" x="509.1696" y="438.1504" clip-path="url(#clipPath11)" font-family="sans-serif" stroke="none" stroke-miterlimit="1.45" xml:space="preserve"> </text>
      <text stroke-linecap="butt" x="509.1696" y="452.8515" clip-path="url(#clipPath11)" font-family="sans-serif" stroke="none" stroke-miterlimit="1.45" xml:space="preserve">virtual GanttGraphicsObject *createGraphicsObject(GanttInfoItem *info) = 0;</text>
      <text stroke-linecap="butt" x="509.1696" y="467.5527" clip-path="url(#clipPath11)" font-family="sans-serif" stroke="none" stroke-miterlimit="1.45" xml:space="preserve">virtual QAbstractItemModel *model() const = 0;</text>
      <rect x="380" y="1077" clip-path="url(#clipPath2)" fill="rgb(255,204,0)" width="146" height="26" stroke="none"/>
      <rect x="379" y="1076" clip-path="url(#clipPath2)" fill="yellow" width="1" height="28" stroke="none"/>
      <rect x="380" y="1076" clip-path="url(#clipPath2)" fill="yellow" width="146" height="1" stroke="none"/>
      <rect x="380" y="1103" clip-path="url(#clipPath2)" fill="rgb(178,142,0)" width="147" height="1" stroke="none"/>
      <rect x="526" y="1076" clip-path="url(#clipPath2)" fill="rgb(178,142,0)" width="1" height="27" stroke="none"/>
    </g>
    <g font-size="13px" stroke-linecap="butt" transform="matrix(1,0,0,1,921,158)" text-rendering="geometricPrecision" font-family="sans-serif" shape-rendering="geometricPrecision" font-weight="bold" stroke-miterlimit="1.45">
      <text x="410.8986" xml:space="preserve" y="1094.8392" clip-path="url(#clipPath12)" stroke="none">CustomModel</text>
    </g>
    <g fill="rgb(255,204,0)" text-rendering="geometricPrecision" shape-rendering="geometricPrecision" transform="matrix(1,0,0,1,921,158)" stroke="rgb(255,204,0)">
      <rect x="626" width="168" height="66" y="1056" clip-path="url(#clipPath2)" stroke="none"/>
      <rect x="625" y="1055" clip-path="url(#clipPath2)" fill="yellow" width="1" height="68" stroke="none"/>
      <rect x="626" y="1055" clip-path="url(#clipPath2)" fill="yellow" width="168" height="1" stroke="none"/>
      <rect x="626" y="1122" clip-path="url(#clipPath2)" fill="rgb(178,142,0)" width="169" height="1" stroke="none"/>
      <rect x="794" y="1055" clip-path="url(#clipPath2)" fill="rgb(178,142,0)" width="1" height="67" stroke="none"/>
    </g>
    <g text-rendering="geometricPrecision" stroke-miterlimit="1.45" shape-rendering="geometricPrecision" font-family="sans-serif" transform="matrix(1,0,0,1,921,158)" stroke-linecap="butt">
      <text x="668.6332" xml:space="preserve" y="1072.61" clip-path="url(#clipPath13)" stroke="none">&lt;&lt;Implement&gt;&gt;</text>
      <text x="641.3241" font-size="13px" y="1097.3165" clip-path="url(#clipPath13)" stroke="none" font-weight="bold" xml:space="preserve">CustomModelWrapper</text>
    </g>
    <g fill="rgb(255,204,0)" text-rendering="geometricPrecision" shape-rendering="geometricPrecision" transform="matrix(1,0,0,1,921,158)" stroke="rgb(255,204,0)">
      <rect x="579" width="262" height="114" y="568" clip-path="url(#clipPath2)" stroke="none"/>
      <rect x="578" y="567" clip-path="url(#clipPath2)" fill="yellow" width="1" height="116" stroke="none"/>
      <rect x="579" y="567" clip-path="url(#clipPath2)" fill="yellow" width="262" height="1" stroke="none"/>
      <rect x="579" y="682" clip-path="url(#clipPath2)" fill="rgb(178,142,0)" width="263" height="1" stroke="none"/>
      <rect x="841" y="567" clip-path="url(#clipPath2)" fill="rgb(178,142,0)" width="1" height="115" stroke="none"/>
    </g>
    <g text-rendering="geometricPrecision" stroke-miterlimit="1.45" shape-rendering="geometricPrecision" font-family="sans-serif" transform="matrix(1,0,0,1,921,158)" stroke-linecap="butt">
      <text x="668.6332" xml:space="preserve" y="584.9985" clip-path="url(#clipPath14)" stroke="none">&lt;&lt;Implement&gt;&gt;</text>
      <text x="672.3737" font-size="13px" y="609.705" clip-path="url(#clipPath14)" stroke="none" font-weight="bold" xml:space="preserve">GantFactory</text>
      <line stroke-linecap="square" clip-path="url(#clipPath14)" fill="none" x1="579" x2="841" y1="617" y2="617" stroke-miterlimit="10"/>
      <line stroke-linecap="square" clip-path="url(#clipPath14)" fill="none" x1="579" x2="841" y1="627" y2="627" stroke-miterlimit="10"/>
      <text x="583.4913" xml:space="preserve" y="644.6259" clip-path="url(#clipPath14)" stroke="none">// Construtor</text>
      <text x="583.4913" xml:space="preserve" y="659.3271" clip-path="url(#clipPath14)" stroke="none">explicit GanttBuilder(IGanttModel *model)</text>
    </g>
    <g fill="rgb(255,204,0)" text-rendering="geometricPrecision" shape-rendering="geometricPrecision" transform="matrix(1,0,0,1,921,158)" stroke="rgb(255,204,0)">
      <rect x="-488" width="168" height="26" y="551" clip-path="url(#clipPath2)" stroke="none"/>
      <rect x="-489" y="550" clip-path="url(#clipPath2)" fill="yellow" width="1" height="28" stroke="none"/>
      <rect x="-488" y="550" clip-path="url(#clipPath2)" fill="yellow" width="168" height="1" stroke="none"/>
      <rect x="-488" y="577" clip-path="url(#clipPath2)" fill="rgb(178,142,0)" width="169" height="1" stroke="none"/>
      <rect x="-320" y="550" clip-path="url(#clipPath2)" fill="rgb(178,142,0)" width="1" height="27" stroke="none"/>
    </g>
    <g font-size="13px" stroke-linecap="butt" transform="matrix(1,0,0,1,921,158)" text-rendering="geometricPrecision" font-family="sans-serif" shape-rendering="geometricPrecision" font-weight="bold" stroke-miterlimit="1.45">
      <text x="-469.6683" xml:space="preserve" y="568.7964" clip-path="url(#clipPath15)" stroke="none">GanttGraphicsObject</text>
    </g>
    <g fill="rgb(255,204,0)" text-rendering="geometricPrecision" shape-rendering="geometricPrecision" transform="matrix(1,0,0,1,921,158)" stroke="rgb(255,204,0)">
      <rect x="-621" width="204" height="26" y="613" clip-path="url(#clipPath2)" stroke="none"/>
      <rect x="-622" y="612" clip-path="url(#clipPath2)" fill="yellow" width="1" height="28" stroke="none"/>
      <rect x="-621" y="612" clip-path="url(#clipPath2)" fill="yellow" width="204" height="1" stroke="none"/>
      <rect x="-621" y="639" clip-path="url(#clipPath2)" fill="rgb(178,142,0)" width="205" height="1" stroke="none"/>
      <rect x="-417" y="612" clip-path="url(#clipPath2)" fill="rgb(178,142,0)" width="1" height="27" stroke="none"/>
    </g>
    <g font-size="13px" stroke-linecap="butt" transform="matrix(1,0,0,1,921,158)" text-rendering="geometricPrecision" font-family="sans-serif" shape-rendering="geometricPrecision" font-weight="bold" stroke-miterlimit="1.45">
      <text x="-608.0298" xml:space="preserve" y="630.2125" clip-path="url(#clipPath16)" stroke="none">GanttIntervalGraphicsObject</text>
    </g>
    <g fill="rgb(255,204,0)" text-rendering="geometricPrecision" shape-rendering="geometricPrecision" transform="matrix(1,0,0,1,921,158)" stroke="rgb(255,204,0)">
      <rect x="-383" width="192" height="26" y="613" clip-path="url(#clipPath2)" stroke="none"/>
      <rect x="-384" y="612" clip-path="url(#clipPath2)" fill="yellow" width="1" height="28" stroke="none"/>
      <rect x="-383" y="612" clip-path="url(#clipPath2)" fill="yellow" width="192" height="1" stroke="none"/>
      <rect x="-383" y="639" clip-path="url(#clipPath2)" fill="rgb(178,142,0)" width="193" height="1" stroke="none"/>
      <rect x="-191" y="612" clip-path="url(#clipPath2)" fill="rgb(178,142,0)" width="1" height="27" stroke="none"/>
    </g>
    <g font-size="13px" stroke-linecap="butt" transform="matrix(1,0,0,1,921,158)" text-rendering="geometricPrecision" font-family="sans-serif" shape-rendering="geometricPrecision" font-weight="bold" stroke-miterlimit="1.45">
      <text x="-366.4211" xml:space="preserve" y="630.2125" clip-path="url(#clipPath17)" stroke="none">GanttCalcGraphicsObject</text>
    </g>
    <g fill="rgb(255,204,0)" text-rendering="geometricPrecision" shape-rendering="geometricPrecision" transform="matrix(1,0,0,1,921,158)" stroke="rgb(255,204,0)">
      <rect x="497" width="425" height="245" y="742" clip-path="url(#clipPath2)" stroke="none"/>
      <rect x="496" y="741" clip-path="url(#clipPath2)" fill="yellow" width="1" height="247" stroke="none"/>
      <rect x="497" y="741" clip-path="url(#clipPath2)" fill="yellow" width="425" height="1" stroke="none"/>
      <rect x="497" y="987" clip-path="url(#clipPath2)" fill="rgb(178,142,0)" width="426" height="1" stroke="none"/>
      <rect x="922" y="741" clip-path="url(#clipPath2)" fill="rgb(178,142,0)" width="1" height="246" stroke="none"/>
    </g>
    <g text-rendering="geometricPrecision" stroke-miterlimit="1.45" shape-rendering="geometricPrecision" font-family="sans-serif" transform="matrix(1,0,0,1,921,158)" stroke-linecap="butt">
      <text x="673.6371" xml:space="preserve" y="758.4227" clip-path="url(#clipPath18)" stroke="none">&lt;&lt;Wrapper&gt;&gt;</text>
      <text x="663.7123" font-size="13px" y="783.1293" clip-path="url(#clipPath18)" stroke="none" font-weight="bold" xml:space="preserve">IModelWrapper</text>
      <line stroke-linecap="square" clip-path="url(#clipPath18)" fill="none" x1="497" x2="923" y1="790" y2="790" stroke-miterlimit="10"/>
      <line stroke-linecap="square" clip-path="url(#clipPath18)" fill="none" x1="497" x2="923" y1="800" y2="800" stroke-miterlimit="10"/>
      <text x="501.9259" xml:space="preserve" y="818.0502" clip-path="url(#clipPath18)" stroke="none">virtual QAbstractItemModel *model() const = 0;</text>
      <text x="501.9259" xml:space="preserve" y="832.7513" clip-path="url(#clipPath18)" stroke="none">virtual QString iGanttTag(const QModelIndex &amp;index) const = 0;  ///&lt; What is?</text>
      <text x="501.9259" xml:space="preserve" y="847.4525" clip-path="url(#clipPath18)" stroke="none">virtual QString iGanttTitle(const QModelIndex &amp;iGanttIndex) const = 0;</text>
      <text x="501.9259" xml:space="preserve" y="862.1537" clip-path="url(#clipPath18)" stroke="none">virtual UtcDateTime iGanttStart(const QModelIndex &amp;iGanttIndex) const = 0;</text>
      <text x="501.9259" xml:space="preserve" y="876.8549" clip-path="url(#clipPath18)" stroke="none">virtual TimeSpan iGanttTimeSpan(const QModelIndex &amp;iGanttIndex) const = 0;</text>
      <text x="501.9259" xml:space="preserve" y="891.556" clip-path="url(#clipPath18)" stroke="none">virtual QColor iGanttColor(const QModelIndex &amp;iGanttIndex) const = 0;</text>
      <text x="501.9259" xml:space="preserve" y="906.2572" clip-path="url(#clipPath18)" stroke="none">/*!</text>
      <text x="501.9259" xml:space="preserve" y="920.9584" clip-path="url(#clipPath18)" stroke="none">    \brief By default every object should be tracked as Event</text>
      <text x="501.9259" xml:space="preserve" y="935.6595" clip-path="url(#clipPath18)" stroke="none">*/</text>
      <text x="501.9259" xml:space="preserve" y="950.3607" clip-path="url(#clipPath18)" stroke="none">virtual bool isEvent(const QModelIndex &amp;index) const { return true; }</text>
    </g>
    <g fill="lime" text-rendering="geometricPrecision" shape-rendering="geometricPrecision" transform="matrix(1,0,0,1,921,158)" stroke="lime">
      <rect x="380" width="146" height="26" y="1019" clip-path="url(#clipPath2)" stroke="none"/>
      <rect x="379" width="1" height="28" y="1018" clip-path="url(#clipPath2)" stroke="none"/>
      <rect x="380" width="146" height="1" y="1018" clip-path="url(#clipPath2)" stroke="none"/>
      <rect x="380" y="1045" clip-path="url(#clipPath2)" fill="rgb(0,178,0)" width="147" height="1" stroke="none"/>
      <rect x="526" y="1018" clip-path="url(#clipPath2)" fill="rgb(0,178,0)" width="1" height="27" stroke="none"/>
    </g>
    <g font-size="13px" stroke-linecap="butt" transform="matrix(1,0,0,1,921,158)" text-rendering="geometricPrecision" font-family="sans-serif" shape-rendering="geometricPrecision" font-weight="bold" stroke-miterlimit="1.45">
      <text x="390.3036" xml:space="preserve" y="1036.8392" clip-path="url(#clipPath19)" stroke="none">QAbstractItemModel</text>
    </g>
    <g fill="rgb(255,204,0)" text-rendering="geometricPrecision" shape-rendering="geometricPrecision" transform="matrix(1,0,0,1,921,158)" stroke="rgb(255,204,0)">
      <rect x="-341" width="82" height="26" y="188" clip-path="url(#clipPath2)" stroke="none"/>
      <rect x="-342" y="187" clip-path="url(#clipPath2)" fill="yellow" width="1" height="28" stroke="none"/>
      <rect x="-341" y="187" clip-path="url(#clipPath2)" fill="yellow" width="82" height="1" stroke="none"/>
      <rect x="-341" y="214" clip-path="url(#clipPath2)" fill="rgb(178,142,0)" width="83" height="1" stroke="none"/>
      <rect x="-259" y="187" clip-path="url(#clipPath2)" fill="rgb(178,142,0)" width="1" height="27" stroke="none"/>
    </g>
    <g font-size="13px" stroke-linecap="butt" transform="matrix(1,0,0,1,921,158)" text-rendering="geometricPrecision" font-family="sans-serif" shape-rendering="geometricPrecision" font-weight="bold" stroke-miterlimit="1.45">
      <text x="-331.7859" xml:space="preserve" y="205.4677" clip-path="url(#clipPath20)" stroke="none">HFitScene</text>
    </g>
    <g fill="lime" text-rendering="geometricPrecision" shape-rendering="geometricPrecision" transform="matrix(1,0,0,1,921,158)" stroke="lime">
      <rect x="-470" width="131" height="26" y="493" clip-path="url(#clipPath2)" stroke="none"/>
      <rect x="-471" width="1" height="28" y="492" clip-path="url(#clipPath2)" stroke="none"/>
      <rect x="-470" width="131" height="1" y="492" clip-path="url(#clipPath2)" stroke="none"/>
      <rect x="-470" y="519" clip-path="url(#clipPath2)" fill="rgb(0,178,0)" width="132" height="1" stroke="none"/>
      <rect x="-339" y="492" clip-path="url(#clipPath2)" fill="rgb(0,178,0)" width="1" height="27" stroke="none"/>
    </g>
    <g font-size="13px" stroke-linecap="butt" transform="matrix(1,0,0,1,921,158)" text-rendering="geometricPrecision" font-family="sans-serif" shape-rendering="geometricPrecision" font-weight="bold" stroke-miterlimit="1.45">
      <text x="-457.7538" xml:space="preserve" y="510.7964" clip-path="url(#clipPath21)" stroke="none">QGraphicsObject</text>
    </g>
    <g fill="rgb(255,204,0)" text-rendering="geometricPrecision" shape-rendering="geometricPrecision" transform="matrix(1,0,0,1,921,158)" stroke="rgb(255,204,0)">
      <rect x="-37" width="98" height="26" y="518" clip-path="url(#clipPath2)" stroke="none"/>
      <rect x="-38" y="517" clip-path="url(#clipPath2)" fill="yellow" width="1" height="28" stroke="none"/>
      <rect x="-37" y="517" clip-path="url(#clipPath2)" fill="yellow" width="98" height="1" stroke="none"/>
      <rect x="-37" y="544" clip-path="url(#clipPath2)" fill="rgb(178,142,0)" width="99" height="1" stroke="none"/>
      <rect x="61" y="517" clip-path="url(#clipPath2)" fill="rgb(178,142,0)" width="1" height="27" stroke="none"/>
    </g>
    <g font-size="13px" stroke-linecap="butt" transform="matrix(1,0,0,1,921,158)" text-rendering="geometricPrecision" font-family="sans-serif" shape-rendering="geometricPrecision" font-weight="bold" stroke-miterlimit="1.45">
      <text x="-30.8637" xml:space="preserve" y="535.2379" clip-path="url(#clipPath22)" stroke="none">GanttInfoItem</text>
    </g>
    <g fill="rgb(255,204,0)" text-rendering="geometricPrecision" shape-rendering="geometricPrecision" transform="matrix(1,0,0,1,921,158)" stroke="rgb(255,204,0)">
      <rect x="-126.0774" width="100" height="30" y="192.9662" clip-path="url(#clipPath2)" stroke="none"/>
      <rect x="-126.0774" y="192.9662" clip-path="url(#clipPath2)" fill="yellow" width="1" height="30" stroke="none"/>
      <rect x="-125.0774" y="192.9662" clip-path="url(#clipPath2)" fill="yellow" width="98" height="1" stroke="none"/>
      <rect x="-125.0774" y="221.9662" clip-path="url(#clipPath2)" fill="rgb(178,142,0)" width="99" height="1" stroke="none"/>
      <rect x="-27.0774" y="192.9662" clip-path="url(#clipPath2)" fill="rgb(178,142,0)" width="1" height="29" stroke="none"/>
    </g>
    <g font-size="13px" stroke-linecap="butt" transform="matrix(1,0,0,1,921,158)" text-rendering="geometricPrecision" font-family="sans-serif" shape-rendering="geometricPrecision" font-weight="bold" stroke-miterlimit="1.45">
      <text x="-119.0669" xml:space="preserve" y="213.0729" clip-path="url(#clipPath2)" stroke="none">MousePressH</text>
      <path fill="none" d="M94.7696 -47.8016 L-422.3579 64.3899 L-755.6609 256.0074" clip-path="url(#clipPath2)"/>
      <path d="M101.6105 -49.2858 L95.8297 -42.9153 L87.9288 -46.3175 L93.7095 -52.688 Z" stroke="none" clip-path="url(#clipPath2)"/>
      <path fill="none" d="M112.7825 -1.886 L-256.5994 255.4855" clip-path="url(#clipPath2)"/>
      <path d="M118.5258 -5.8878 L115.6409 2.2164 L107.0391 2.1157 L109.9241 -5.9884 Z" stroke="none" clip-path="url(#clipPath2)"/>
      <path fill="none" d="M-300 322.9296 L-300 390.3109" clip-path="url(#clipPath2)"/>
      <path d="M-300 315.9296 L-295 322.9296 L-300 329.9296 L-305 322.9296 Z" stroke="none" clip-path="url(#clipPath2)"/>
    </g>
    <g stroke-linecap="butt" transform="matrix(1,0,0,1,921,158)" fill="navy" text-rendering="geometricPrecision" shape-rendering="geometricPrecision" stroke-dasharray="6,2" stroke="navy" stroke-miterlimit="1.45">
      <path fill="none" d="M-780 284.0048 L-780 404.341 L-355.0098 404.341" clip-path="url(#clipPath2)"/>
      <path fill="black" d="M-351.0098 404.341 L-363.0098 398.341 L-351.0098 404.341 L-363.0098 410.341 Z" clip-path="url(#clipPath2)" stroke="none"/>
      <path fill="none" stroke-miterlimit="10" stroke-dasharray="none" d="M-351.0098 404.341 L-363.0098 398.341 L-351.0098 404.341 L-363.0098 410.341 Z" clip-path="url(#clipPath2)" stroke-linecap="square"/>
      <text x="-691.4614" y="420.4055" clip-path="url(#clipPath2)" font-family="sans-serif" stroke-dasharray="none" stroke="none" xml:space="preserve">&lt;&lt; Listens &gt;&gt;</text>
      <path fill="none" stroke-dasharray="none" d="M-300 383.3539 L-300 315.9441" clip-path="url(#clipPath2)" stroke="black"/>
      <path fill="white" stroke-dasharray="none" d="M-300 390.3539 L-305 383.3539 L-300 376.3539 L-295 383.3539 Z" clip-path="url(#clipPath2)" stroke="none"/>
      <path fill="none" stroke-dasharray="none" d="M-300 390.3539 L-305 383.3539 L-300 376.3539 L-295 383.3539 Z" clip-path="url(#clipPath2)" stroke="black"/>
      <path fill="none" d="M-350.0098 390.3445 L-725.1892 285.3403" clip-path="url(#clipPath2)"/>
      <path fill="black" d="M-729.0411 284.2622 L-719.1024 293.2744 L-729.0411 284.2622 L-715.8681 281.7185 Z" clip-path="url(#clipPath2)" stroke="none"/>
      <path fill="none" stroke-miterlimit="10" stroke-dasharray="none" d="M-729.0411 284.2622 L-719.1024 293.2744 L-729.0411 284.2622 L-715.8681 281.7185 Z" clip-path="url(#clipPath2)" stroke-linecap="square"/>
      <text x="-638.3801" y="345.173" clip-path="url(#clipPath2)" font-family="sans-serif" stroke-dasharray="none" stroke="none" xml:space="preserve">&lt;&lt; Listens &gt;&gt;</text>
      <path fill="none" stroke-dasharray="none" d="M94.6263 -74.2377 L-719.6685 -74.2377" clip-path="url(#clipPath2)" stroke="black"/>
      <path fill="black" stroke-dasharray="none" d="M101.6263 -74.2377 L94.6263 -69.2377 L87.6263 -74.2377 L94.6263 -79.2377 Z" clip-path="url(#clipPath2)" stroke="none"/>
      <path fill="none" stroke-dasharray="none" d="M94.6859 -58.2132 L-719.6685 48.8066" clip-path="url(#clipPath2)" stroke="black"/>
      <path fill="black" stroke-dasharray="none" d="M101.6263 -59.1253 L95.3374 -53.2559 L87.7456 -57.3012 L94.0345 -63.1706 Z" clip-path="url(#clipPath2)" stroke="none"/>
      <path fill="none" d="M-362.8282 257.6338 L-768.9572 76.0456" clip-path="url(#clipPath2)"/>
      <path fill="black" d="M-772.6088 74.4129 L-764.103 84.7884 L-772.6088 74.4129 L-759.205 73.8336 Z" clip-path="url(#clipPath2)" stroke="none"/>
      <path fill="none" stroke-miterlimit="10" stroke-dasharray="none" d="M-772.6088 74.4129 L-764.103 84.7884 L-772.6088 74.4129 L-759.205 73.8336 Z" clip-path="url(#clipPath2)" stroke-linecap="square"/>
      <text x="-579.4766" y="154.3408" clip-path="url(#clipPath2)" font-family="sans-serif" stroke-dasharray="none" stroke="none" xml:space="preserve">&lt;&lt; Listens &gt;&gt;</text>
      <path fill="none" d="M-804.8438 46.006 L-804.8438 -55.2347" clip-path="url(#clipPath2)"/>
      <path fill="black" d="M-804.8438 -59.2347 L-810.8438 -47.2347 L-804.8438 -59.2347 L-798.8438 -47.2347 Z" clip-path="url(#clipPath2)" stroke="none"/>
      <path fill="none" stroke-miterlimit="10" stroke-dasharray="none" d="M-804.8438 -59.2347 L-810.8438 -47.2347 L-804.8438 -59.2347 L-798.8438 -47.2347 Z" clip-path="url(#clipPath2)" stroke-linecap="square"/>
      <text x="-800.8438" y="-2.405" clip-path="url(#clipPath2)" font-family="sans-serif" stroke-dasharray="none" stroke="none" xml:space="preserve">&lt;&lt; Listens &gt;&gt;</text>
      <path fill="none" d="M-697.5482 283.9966 L-113.3602 383.1653" clip-path="url(#clipPath2)"/>
      <path fill="black" d="M-109.4166 383.8347 L-120.2432 375.911 L-109.4166 383.8347 L-122.2515 387.7418 Z" clip-path="url(#clipPath2)" stroke="none"/>
      <path fill="none" stroke-miterlimit="10" stroke-dasharray="none" d="M-109.4166 383.8347 L-120.2432 375.911 L-109.4166 383.8347 L-122.2515 387.7418 Z" clip-path="url(#clipPath2)" stroke-linecap="square"/>
      <text x="-492.6834" y="311.7971" clip-path="url(#clipPath2)" font-family="sans-serif" stroke-dasharray="none" stroke="none" xml:space="preserve">&lt;&lt; Listens &gt;&gt;</text>
      <path fill="none" stroke-dasharray="none" d="M184.5631 0.5181 L26.0411 370.1613" clip-path="url(#clipPath2)" stroke="black"/>
      <path fill="black" stroke-dasharray="none" d="M187.3221 -5.9152 L189.1584 2.4888 L181.8041 6.9515 L179.9678 -1.4525 Z" clip-path="url(#clipPath2)" stroke="none"/>
      <path fill="none" stroke-dasharray="none" d="M-230.627 312.1518 L-78.3952 370.1417" clip-path="url(#clipPath2)" stroke="black"/>
      <path fill="white" stroke-dasharray="none" d="M-237.1684 309.66 L-228.8471 307.4793 L-224.0855 314.6437 L-232.4068 316.8243 Z" clip-path="url(#clipPath2)" stroke="none"/>
      <path fill="none" stroke-dasharray="none" d="M-237.1684 309.66 L-228.8471 307.4793 L-224.0855 314.6437 L-232.4068 316.8243 Z" clip-path="url(#clipPath2)" stroke="black"/>
      <path fill="none" stroke-dasharray="none" d="M138.1872 404.341 L504.1447 404.341" clip-path="url(#clipPath2)" stroke="black"/>
      <path fill="white" stroke-dasharray="none" d="M131.1872 404.341 L138.1872 399.341 L145.1872 404.341 L138.1872 409.341 Z" clip-path="url(#clipPath2)" stroke="none"/>
      <path fill="none" stroke-dasharray="none" d="M131.1872 404.341 L138.1872 399.341 L145.1872 404.341 L138.1872 409.341 Z" clip-path="url(#clipPath2)" stroke="black"/>
    </g>
    <g text-rendering="geometricPrecision" stroke-miterlimit="1.45" shape-rendering="geometricPrecision" font-family="sans-serif" transform="matrix(1,0,0,1,921,158)" stroke-linecap="butt">
      <text x="223.9833" xml:space="preserve" y="397.7043" clip-path="url(#clipPath2)" stroke="none">&lt;&lt; Factory Usage :: createInfo() &gt;&gt;</text>
      <path fill="none" d="M-230.1739 284.639 L710.6595 270 L710.6595 332.0868" clip-path="url(#clipPath2)"/>
      <path fill="white" d="M-237.173 284.7479 L-230.2517 279.6396 L-223.1747 284.5301 L-230.0961 289.6384 Z" clip-path="url(#clipPath2)" stroke="none"/>
      <path fill="none" d="M-237.173 284.7479 L-230.2517 279.6396 L-223.1747 284.5301 L-230.0961 289.6384 Z" clip-path="url(#clipPath2)"/>
      <text x="140.2509" xml:space="preserve" y="269.063" clip-path="url(#clipPath2)" stroke="none">&lt;&lt; Factory Usage :: createObject() &gt;&gt;</text>
      <path fill="none" d="M618.4912 1090.1133 L528.0738 1090.4736" clip-path="url(#clipPath2)"/>
      <path fill="white" d="M625.4911 1090.0853 L618.5112 1095.1133 L611.4913 1090.1412 L618.4713 1085.1133 Z" clip-path="url(#clipPath2)" stroke="none"/>
      <path fill="none" d="M625.4911 1090.0853 L618.5112 1095.1133 L611.4913 1090.1412 L618.4713 1085.1133 Z" clip-path="url(#clipPath2)"/>
      <path fill="none" stroke-dasharray="6,2" d="M710.6595 567.9576 L710.6595 491.6024" clip-path="url(#clipPath2)"/>
    </g>
    <g stroke-linecap="butt" transform="matrix(1,0,0,1,921,158)" fill="white" text-rendering="geometricPrecision" shape-rendering="geometricPrecision" stroke-dasharray="6,2" stroke="white" stroke-miterlimit="1.45">
      <path d="M710.6595 476.6024 L704.6595 492.6024 L716.6595 492.6024 Z" stroke="none" clip-path="url(#clipPath2)"/>
      <path fill="none" stroke-dasharray="none" d="M710.6595 476.6024 L704.6595 492.6024 L716.6595 492.6024 Z" clip-path="url(#clipPath2)" stroke="black"/>
      <path fill="none" stroke-dasharray="none" d="M-238.0628 319.3018 L-177.3546 352.2119 L-177.3546 564.7266 L-319.1639 564.7266" clip-path="url(#clipPath2)" stroke="black"/>
      <path stroke-dasharray="none" d="M-244.2167 315.9658 L-235.6799 314.9062 L-231.9089 322.6379 L-240.4457 323.6975 Z" clip-path="url(#clipPath2)" stroke="none"/>
      <path fill="none" stroke-dasharray="none" d="M-244.2167 315.9658 L-235.6799 314.9062 L-231.9089 322.6379 L-240.4457 323.6975 Z" clip-path="url(#clipPath2)" stroke="black"/>
    </g>
    <g text-rendering="geometricPrecision" stroke-miterlimit="1.45" shape-rendering="geometricPrecision" font-family="sans-serif" transform="matrix(1,0,0,1,921,158)" stroke-linecap="butt">
      <text x="-307.0125" xml:space="preserve" y="580.791" clip-path="url(#clipPath2)" stroke="none">0 .. *</text>
      <path fill="none" d="M-493.2842 612.1531 L-443.8199 585.7916" clip-path="url(#clipPath2)"/>
      <path fill="white" d="M-430.5825 578.7368 L-447.5244 580.967 L-441.8805 591.5569 Z" clip-path="url(#clipPath2)" stroke="none"/>
      <path fill="none" d="M-430.5825 578.7368 L-447.5244 580.967 L-441.8805 591.5569 Z" clip-path="url(#clipPath2)"/>
      <path fill="none" d="M-313.962 612.1531 L-364.328 585.7097" clip-path="url(#clipPath2)"/>
      <path fill="white" d="M-377.6088 578.7368 L-366.2318 591.4868 L-360.6535 580.8622 Z" clip-path="url(#clipPath2)" stroke="none"/>
      <path fill="none" d="M-377.6088 578.7368 L-366.2318 591.4868 L-360.6535 580.8622 Z" clip-path="url(#clipPath2)"/>
      <path fill="none" d="M710.6595 691.3272 L710.6595 741.381" clip-path="url(#clipPath2)"/>
      <path d="M710.6595 684.3272 L715.6595 691.3272 L710.6595 698.3272 L705.6595 691.3272 Z" clip-path="url(#clipPath2)" stroke="none"/>
      <path fill="none" stroke-dasharray="6,2" d="M710.6595 1055.5444 L710.6595 1003.8111" clip-path="url(#clipPath2)"/>
    </g>
    <g stroke-linecap="butt" transform="matrix(1,0,0,1,921,158)" fill="white" text-rendering="geometricPrecision" shape-rendering="geometricPrecision" stroke-dasharray="6,2" stroke="white" stroke-miterlimit="1.45">
      <path d="M710.6595 988.8111 L704.6595 1004.8111 L716.6595 1004.8111 Z" stroke="none" clip-path="url(#clipPath2)"/>
      <path fill="none" stroke-dasharray="none" d="M710.6595 988.8111 L704.6595 1004.8111 L716.6595 1004.8111 Z" clip-path="url(#clipPath2)" stroke="black"/>
      <path fill="none" stroke-dasharray="none" d="M453.869 1076.7509 L453.869 1061.7284" clip-path="url(#clipPath2)" stroke="black"/>
      <path stroke-dasharray="none" d="M453.869 1046.7284 L447.869 1062.7284 L459.869 1062.7284 Z" clip-path="url(#clipPath2)" stroke="none"/>
      <path fill="none" stroke-dasharray="none" d="M453.869 1046.7284 L447.869 1062.7284 L459.869 1062.7284 Z" clip-path="url(#clipPath2)" stroke="black"/>
      <path fill="none" d="M131.2141 423.1152 L453.869 473.6664 L453.869 1013.7441" clip-path="url(#clipPath2)" stroke="navy"/>
      <path fill="black" d="M453.869 1017.7441 L459.869 1005.7441 L453.869 1017.7441 L447.869 1005.7441 Z" clip-path="url(#clipPath2)" stroke="none"/>
    </g>
    <g fill="navy" text-rendering="geometricPrecision" shape-rendering="geometricPrecision" transform="matrix(1,0,0,1,921,158)" stroke="navy">
      <path fill="none" d="M453.869 1017.7441 L459.869 1005.7441 L453.869 1017.7441 L447.869 1005.7441 Z" clip-path="url(#clipPath2)"/>
      <text stroke-linecap="butt" x="377.1483" y="694.8416" clip-path="url(#clipPath2)" font-family="sans-serif" stroke="none" stroke-miterlimit="1.45" xml:space="preserve">&lt;&lt; Listens &gt;&gt;</text>
    </g>
    <g text-rendering="geometricPrecision" stroke-miterlimit="1.45" shape-rendering="geometricPrecision" transform="matrix(1,0,0,1,921,158)" stroke-linecap="butt">
      <path fill="none" d="M-300 255.4614 L-300 230.4153" clip-path="url(#clipPath2)"/>
      <path fill="white" d="M-300 215.4153 L-306 231.4153 L-294 231.4153 Z" clip-path="url(#clipPath2)" stroke="none"/>
      <path fill="none" d="M-300 215.4153 L-306 231.4153 L-294 231.4153 Z" clip-path="url(#clipPath2)"/>
      <path fill="none" d="M-300 180.4376 L-300 113.6687" clip-path="url(#clipPath2)"/>
      <path fill="white" d="M-300 187.4376 L-305 180.4376 L-300 173.4376 L-295 180.4376 Z" clip-path="url(#clipPath2)" stroke="none"/>
      <path fill="none" d="M-300 187.4376 L-305 180.4376 L-300 173.4376 L-295 180.4376 Z" clip-path="url(#clipPath2)"/>
      <path fill="none" d="M-404.2938 550.708 L-404.2938 535.6855" clip-path="url(#clipPath2)"/>
      <path fill="white" d="M-404.2938 520.6855 L-410.2938 536.6855 L-398.2938 536.6855 Z" clip-path="url(#clipPath2)" stroke="none"/>
      <path fill="none" d="M-404.2938 520.6855 L-410.2938 536.6855 L-398.2938 536.6855 Z" clip-path="url(#clipPath2)"/>
      <path fill="none" d="M11.3832 445.5558 L11.3832 517.1949" clip-path="url(#clipPath2)"/>
      <path d="M11.3832 438.5558 L16.3832 445.5558 L11.3832 452.5558 L6.3832 445.5558 Z" clip-path="url(#clipPath2)" stroke="none"/>
      <text x="15.3832" xml:space="preserve" y="502.4064" clip-path="url(#clipPath2)" font-family="sans-serif" stroke="none">0..*</text>
      <path fill="none" d="M-19.4268 551.1316 L-19.4808 551.2158 L-19.7712 551.8185 L-20.9082 554.925 L-21.7413 558.1653 L-22.2537 561.5225 L-22.4283 564.9795 L-22.2537 568.4365 L-21.7413 571.7936 L-20.9082 575.034 L-19.7712 578.1404 L-18.3474 581.096 L-16.6538 583.8838 L-14.7074 586.4867 L-12.5251 588.8878 L-10.124 591.07 L-7.5211 593.0164 L-4.7334 594.71 L-1.7778 596.1339 L1.3287 597.2708 L4.569 598.1039 L7.9261 598.6163 L11.3832 598.7909 L14.8402 598.6163 L18.1973 598.1039 L21.4376 597.2708 L24.5441 596.1339 L27.4997 594.71 L30.2874 593.0164 L32.8903 591.07 L35.2914 588.8878 L37.4737 586.4867 L39.4201 583.8838 L41.1137 581.096 L42.5375 578.1404 L43.6745 575.034 L44.5076 571.7936 L45.02 568.4365 L45.1945 564.9795 L45.02 561.5225 L44.5076 558.1653 L43.6745 554.925 L42.5375 551.8185 L41.1137 548.863 L39.4201 546.0752 L38.7358 545.1601" clip-path="url(#clipPath2)"/>
      <path fill="white" d="M-15.9195 545.0737 L-15.0997 553.6368 L-22.9341 557.1896 L-23.7539 548.6264 Z" clip-path="url(#clipPath2)" stroke="none"/>
      <path fill="none" d="M-15.9195 545.0737 L-15.0997 553.6368 L-22.9341 557.1896 L-23.7539 548.6264 Z" clip-path="url(#clipPath2)"/>
      <text x="15.3832" xml:space="preserve" y="569.3575" clip-path="url(#clipPath2)" font-family="sans-serif" stroke="none">0 .. *</text>
      <path fill="none" stroke-dasharray="6,2" d="M-18.5287 545.1855 L-19.7384 546.3132 L-22.9968 549.9921 L-25.8898 553.9647 L-28.3948 558.2025 L-30.4888 562.6774 L-32.1491 567.3608 L-33.3528 572.2245 L-34.0771 577.2399 L-34.2993 582.3789 L-33.9965 587.6129 L-33.1679 592.7899 L-31.8471 597.7611 L-30.0623 602.504 L-27.842 606.9955 L-25.2145 611.213 L-22.2081 615.1336 L-18.8513 618.7345 L-15.1725 621.9929 L-11.1999 624.8859 L-6.962 627.3909 L-2.4872 629.4849 L2.1963 631.1451 L7.0599 632.3489 L12.0754 633.0732 L17.2144 633.2954 L22.4484 632.9926 L27.6253 632.164 L32.5966 630.8432 L37.3394 629.0584 L41.831 626.8381 L46.0484 624.2106 L49.969 621.2042 L53.5699 617.8474 L56.8283 614.1686 L59.7214 610.196 L62.2263 605.9581 L64.3204 601.4833 L65.9806 596.7998 L67.1843 591.9362 L67.9087 586.9207 L68.1308 581.7817 L67.828 576.5477 L66.9995 571.3708 L65.6786 566.3995 L63.8939 561.6567 L61.6735 557.1652 L59.046 552.9476 L56.0397 549.027 L55.8055 548.7758 L55.7306 548.7095" clip-path="url(#clipPath2)" stroke="navy"/>
      <path stroke-dasharray="6,2" d="M52.9848 545.8008 L56.8593 558.6456 L52.9848 545.8008 L65.5853 550.4081 Z" clip-path="url(#clipPath2)" stroke="none"/>
    </g>
    <g fill="navy" text-rendering="geometricPrecision" shape-rendering="geometricPrecision" transform="matrix(1,0,0,1,921,158)" stroke="navy">
      <path fill="none" d="M52.9848 545.8008 L56.8593 558.6456 L52.9848 545.8008 L65.5853 550.4081 Z" clip-path="url(#clipPath2)"/>
      <text stroke-linecap="butt" x="38.8193" y="646.4686" clip-path="url(#clipPath2)" font-family="sans-serif" stroke="none" stroke-miterlimit="1.45" xml:space="preserve">&lt;&lt; Listens &gt;&gt;</text>
    </g>
    <g text-rendering="geometricPrecision" stroke-miterlimit="1.45" shape-rendering="geometricPrecision" transform="matrix(1,0,0,1,921,158)" stroke-linecap="butt">
      <path fill="none" d="M-45.6248 531.1681 L-76.0774 531.1681 L-356.2821 531.1681 L-378.5124 546.7063" clip-path="url(#clipPath2)"/>
      <path d="M-38.6248 531.1681 L-45.6248 536.1681 L-52.6248 531.1681 L-45.6248 526.1681 Z" clip-path="url(#clipPath2)" stroke="none"/>
      <path fill="white" d="M-384.2498 550.7166 L-381.3769 542.6082 L-372.775 542.696 L-375.648 550.8044 Z" clip-path="url(#clipPath2)" stroke="none"/>
      <path fill="none" d="M-384.2498 550.7166 L-381.3769 542.6082 L-372.775 542.696 L-375.648 550.8044 Z" clip-path="url(#clipPath2)"/>
      <path fill="none" d="M-230.6005 261.6258 L-119.3118 222.9798" clip-path="url(#clipPath2)"/>
      <path d="M-237.2131 263.9221 L-232.2407 256.9025 L-223.9878 259.3295 L-228.9603 266.3492 Z" clip-path="url(#clipPath2)" stroke="none"/>
      <path fill="none" d="M-264.7515 116.7023 L-107.0897 192.9652" clip-path="url(#clipPath2)"/>
      <path fill="white" d="M-271.053 113.6542 L-262.5742 112.2012 L-258.45 119.7504 L-266.9287 121.2034 Z" clip-path="url(#clipPath2)" stroke="none"/>
      <path fill="none" d="M-271.053 113.6542 L-262.5742 112.2012 L-258.45 119.7504 L-266.9287 121.2034 Z" clip-path="url(#clipPath2)"/>
    </g>
  </g>
</svg>
